<?xml version="1.0" encoding="utf-8"?>
<!DOCTYPE svg PUBLIC "-//W3C//DTD SVG 1.0//EN" "http://www.w3.org/TR/2001/REC-SVG-20010904/DTD/svg10.dtd">
<svg version="1.0" xmlns="http://www.w3.org/2000/svg" width="479px" height="521px" viewBox="0 0 479 521" preserveAspectRatio="xMidYMid meet">
 <g fill="#FFFFFF">
  <path d="M226.9 511.3 c-23.7 -16 -47.8 -37.6 -63.8 -57.3 -2.9 -3.6 -6 -7.4 -6.8 -8.4 -3.4 -4.2 -14.3 -21.6 -18.6 -29.6 -12.3 -23.2 -20.6 -50.4 -22.6 -74.4 -0.6 -7.9 -1 -9.1 -3.1 -10.5 -10.6 -7 -33.6 -27.2 -32.8 -28.8 0.2 -0.4 3.1 -6.1 6.3 -12.7 3.3 -6.5 6.5 -12.1 7.3 -12.4 0.8 -0.3 5.4 3.5 11.5 9.5 11.3 11.1 20.2 18.2 30.6 24.3 3.9 2.2 7.2 4.8 7.5 5.8 0.2 0.9 0.8 5.8 1.1 10.7 0.8 11.5 2.3 23.7 3.6 30 7 32.5 23.2 62.1 49.5 90.4 8.2 8.8 28.8 27 36.8 32.6 l5.7 3.9 3.2 -1.7 c2.8 -1.5 13.1 -9.8 24.7 -19.9 1.9 -1.7 7.9 -7.4 13.2 -12.6 l9.7 -9.5 13.3 1.7 c7.3 0.9 14.8 2 16.5 2.4 l3.3 0.7 -7.1 8.5 c-14 16.8 -31.8 33.8 -49.4 47.1 -9.9 7.5 -25.5 17.9 -26.9 17.9 -0.7 0 -6.4 -3.5 -12.7 -7.7z"/>
  <path d="M117 425 c-1.9 -0.5 -10.2 -2.3 -18.3 -4 -8.2 -1.7 -17.2 -3.8 -20 -4.7 -21.1 -6.5 -33.8 -11.4 -50.2 -19.5 -6.6 -3.3 -12.3 -6.3 -12.6 -6.6 -1.7 -1.8 1.6 -38.6 4.8 -54.2 4.9 -23.9 12.1 -45.6 21.1 -63.7 8 -16 11.6 -22 21.2 -35.2 8.9 -12.5 27.3 -31.4 38.5 -39.6 12.9 -9.5 13.5 -10.2 13.5 -15.4 0 -4.6 1.4 -13.3 4.5 -28.6 2.3 -11.3 2.6 -11.5 19.1 -11.5 8.4 0 13.4 0.4 13.4 1 0 0.6 -0.8 4.3 -1.8 8.3 -4.3 16.6 -5.5 24.6 -6.8 43.9 l-0.6 9.8 -5.6 3.2 c-3.2 1.8 -6.1 3.6 -6.7 4.1 -0.5 0.4 -4.1 3 -8 5.8 -10.4 7.4 -28.4 25.6 -36.2 36.7 -7.3 10.3 -12.3 17.9 -12.3 18.6 0 0.2 -1.6 3.2 -3.6 6.7 -4.3 7.6 -9.6 20.3 -13.5 32.2 -6.4 19.6 -11.8 48.8 -11 59.5 0.2 2.6 30.6 14.4 48.1 18.7 3.6 0.9 8 2 9.9 2.5 4.3 1.1 5.3 2.2 8.1 9.5 1.3 3.3 3.8 9 5.6 12.7 3.8 7.8 4.8 10.8 3.7 10.7 -0.4 -0.1 -2.4 -0.5 -4.3 -0.9z"/>
  <path d="M295.5 423.6 c-16.8 -3.5 -25.7 -6.2 -40.6 -12.1 -7.4 -3 -14.5 -5.5 -15.8 -5.5 -1.2 0 -5.9 1.6 -10.3 3.5 -11.1 4.9 -27.5 10.5 -30.6 10.5 -2.3 0 -3.7 -1.6 -9.3 -10.3 -10 -15.2 -9.7 -14.4 -4.7 -15.8 2.4 -0.6 5.3 -1.5 6.6 -2 1.3 -0.5 3 -0.9 3.8 -0.9 3 0 21.2 -7.3 33.2 -13.3 10.7 -5.4 12.5 -6 14.3 -4.9 3.8 2.4 18.4 9.9 21.9 11.2 1.9 0.7 5.1 1.9 7 2.7 17.3 6.9 36.7 10.3 58.8 10.3 29.2 0 47.4 -3.1 75.7 -13 28.3 -9.8 28.5 -10 27.8 -17.6 -1 -11.8 -7.4 -43.8 -10.2 -51.4 -1.9 -5 -2.2 -8.7 -0.9 -10.1 1.9 -2 12 -15.7 14.9 -20.1 2.6 -4.1 4.6 -4.8 5.5 -2 0.3 0.9 1 2.6 1.4 3.7 0.5 1.1 2.1 5.4 3.5 9.5 8.3 23.8 13.8 50 15 72 0.3 5.8 0.8 13.1 1.1 16.2 l0.6 5.7 -14.4 7 c-29.4 14.3 -50.4 21 -83.9 27.1 -9.4 1.7 -15.2 2 -35.3 1.9 -20.9 -0.1 -25.6 -0.4 -35.1 -2.3z"/>
  <path d="M327 377.4 c0 -0.9 0.8 -4.7 1.9 -8.3 3.9 -14 5.4 -23.6 6.7 -43.5 l0.6 -9.8 4.4 -2.7 c24.6 -14.9 45.5 -35.2 60.6 -59.1 5.5 -8.7 16.3 -31.6 19.7 -41.5 6.5 -19.4 12.1 -47.2 12.1 -59.9 l0 -5.4 -10.2 -4 c-8.5 -3.4 -22.2 -8 -42.4 -14.2 -1.7 -0.6 -4 -1 -5.1 -1 -3.3 0 -5.9 -3 -8.2 -9.2 -1.1 -3.2 -2.5 -6.6 -3.1 -7.5 -1.2 -2.3 -7 -15.4 -7 -16 0 -0.3 0.7 -0.2 1.6 0.1 0.9 0.3 4.8 1.1 8.7 1.7 17.3 2.6 43.6 9.9 61 16.8 10.3 4.1 34.3 15.6 35 16.7 0.6 1.1 -1.9 37.6 -3.3 45.4 -0.5 3 -1.6 8.7 -2.5 12.5 -0.8 3.9 -1.8 8.4 -2.1 10 -1.5 7.1 -8.5 28.4 -13 39.5 -13.8 33.4 -38.6 65.7 -66.9 86.8 -11.7 8.8 -11.5 8.6 -11.5 13.4 0 3.6 -3.2 23.4 -5.6 34.6 -1.1 5.5 -3.2 6.2 -18.1 6.2 -11.7 0 -13.3 -0.2 -13.3 -1.6z"/>
  <path d="M374.8 234.2 c-12.5 -12.2 -15.4 -14.5 -28.4 -22.8 l-10.2 -6.6 -0.6 -14.1 c-1.5 -30.5 -3.9 -40.5 -15 -62.1 -10.4 -20.1 -13 -24.5 -23.5 -38.6 -12 -16.3 -52 -53 -57.7 -53 -3.1 0 -21 14.5 -36.7 29.9 -6.5 6.4 -12.5 12 -13.3 12.4 -1.2 0.7 -11.1 -0.3 -29.1 -2.9 l-4.1 -0.6 3.6 -5.2 c4.9 -6.9 37.1 -39 45.2 -45.1 3.6 -2.7 6.7 -5.2 7 -5.5 0.7 -0.8 12.4 -9 19.9 -14 3.3 -2.2 6.7 -4 7.5 -4 1.6 0 4.8 2 19.2 11.9 9.1 6.3 7.9 5.4 16.9 12.8 5.9 4.8 14.4 12.6 25.9 23.9 26.9 26.3 50.7 68.6 58.1 103.4 2.7 12.8 4.5 23.3 4.5 27.2 0 3.6 1.7 8.8 2.9 8.8 1.2 0 16.9 12.4 24.8 19.6 l8.2 7.5 -2.2 5.2 c-3.2 8 -10.2 21 -11.5 21.5 -0.6 0.2 -5.7 -4.2 -11.4 -9.6z"/>
  <path d="M37.3 239.8 c-0.5 -0.7 -1.5 -2.9 -2.2 -4.8 -0.7 -1.9 -1.7 -4.4 -2.1 -5.5 -5.4 -13.5 -12.2 -40.8 -14.9 -59.5 -1.5 -10.7 -3.3 -37.9 -2.5 -39.1 0.5 -0.9 11.3 -6.3 27.9 -13.9 14.7 -6.7 45.4 -15.9 67 -19.9 15.6 -3 53.6 -3 70.5 -0.1 17.4 2.9 34.3 8.1 49.5 15.1 6.8 3.1 11.6 2.9 19.8 -0.9 3.7 -1.8 7.3 -3.2 8 -3.2 0.7 0 1.7 -0.4 2.3 -0.9 1.7 -1.5 18 -6.3 20.5 -5.9 1.8 0.2 4.3 3.2 10.1 11.8 4.3 6.3 7.8 11.8 7.8 12.2 0 0.4 -1.9 1.2 -4.2 1.9 -11.4 3.1 -21.5 6.1 -23.3 6.8 -12 5.1 -16.2 7 -23.4 10.9 l-8.3 4.5 -14.2 -7.2 c-7.9 -3.9 -14.9 -7.1 -15.7 -7.1 -0.8 0 -1.9 -0.4 -2.5 -0.9 -0.8 -0.9 -14.3 -5.1 -20.9 -6.6 -20.9 -4.7 -58 -4.7 -80 0 -10.9 2.3 -23.8 6 -36 10.2 -7.4 2.6 -10.7 3.9 -19.4 7.9 l-5.4 2.5 0.6 9.7 c0.9 13 4.9 33.3 9.7 48.3 2.3 7.2 2.4 8.3 0.7 10.1 -1.8 1.9 -11.9 15.5 -15.2 20.6 -3.1 4.8 -2.9 4.6 -4.2 3z"/>
 </g>
</svg>